<svg width="42" height="38" viewBox="0 0 42 38" fill="none" xmlns="http://www.w3.org/2000/svg">
<path d="M16.9479 30.3333H25.052M11.2751 2H30.7248C32.9942 2 34.129 2 34.9957 2.41176C35.7581 2.77393 36.378 3.35186 36.7664 4.0627C37.2081 4.87081 37.2081 5.9287 37.2081 8.04444V18.6222C37.2081 20.738 37.2081 21.7959 36.7664 22.604C36.378 23.3148 35.7581 23.8928 34.9957 24.2549C34.129 24.6667 32.9942 24.6667 30.7248 24.6667H11.2751C9.00569 24.6667 7.87101 24.6667 7.00424 24.2549C6.24179 23.8928 5.6219 23.3148 5.23341 22.604C4.79178 21.7959 4.79178 20.738 4.79178 18.6222V8.04444C4.79178 5.9287 4.79178 4.87081 5.23341 4.0627C5.6219 3.35186 6.24179 2.77393 7.00424 2.41176C7.87101 2 9.00569 2 11.2751 2ZM5.9848 36H36.0152C37.7519 36 38.6202 36 39.1432 35.6591C39.5998 35.3612 39.9049 34.9012 39.9864 34.3873C40.0796 33.7985 39.6912 33.0745 38.9146 31.6263L37.87 29.6786C36.8943 27.8593 36.4064 26.9496 35.6787 26.2849C35.035 25.6972 34.2592 25.2503 33.4075 24.9764C32.4445 24.6667 31.3535 24.6667 29.1719 24.6667H12.8281C10.6464 24.6667 9.55547 24.6667 8.59238 24.9764C7.74068 25.2503 6.96495 25.6972 6.32131 26.2849C5.59348 26.9496 5.10561 27.8593 4.1299 29.6786L3.0854 31.6263C2.30871 33.0745 1.92036 33.7985 2.01364 34.3873C2.09508 34.9012 2.40004 35.3612 2.8567 35.6591C3.3797 36 4.24806 36 5.9848 36Z" stroke="#002551" stroke-width="4" stroke-linecap="round" stroke-linejoin="round"/>
</svg>
