<svg width="45" height="45" viewBox="0 0 45 45" fill="none" xmlns="http://www.w3.org/2000/svg">
<path d="M13.125 13.125C12.0895 13.125 11.25 13.9645 11.25 15C11.25 16.0355 12.0895 16.875 13.125 16.875H24.375C25.4106 16.875 26.25 16.0355 26.25 15C26.25 13.9645 25.4106 13.125 24.375 13.125H13.125Z" fill="#002551"/>
<path d="M11.25 22.5C11.25 21.4644 12.0895 20.625 13.125 20.625H24.375C25.4106 20.625 26.25 21.4644 26.25 22.5C26.25 23.5356 25.4106 24.375 24.375 24.375H13.125C12.0895 24.375 11.25 23.5356 11.25 22.5Z" fill="#002551"/>
<path d="M13.125 28.125C12.0895 28.125 11.25 28.9644 11.25 30C11.25 31.0356 12.0895 31.875 13.125 31.875H24.375C25.4106 31.875 26.25 31.0356 26.25 30C26.25 28.9644 25.4106 28.125 24.375 28.125H13.125Z" fill="#002551"/>
<path fill-rule="evenodd" clip-rule="evenodd" d="M10.5469 39.375H34.4531C38.2346 39.375 41.25 36.2691 41.25 32.4999V12.5C41.25 8.73099 38.2346 5.625 34.4531 5.625H10.5469C6.76534 5.625 3.75 8.73099 3.75 12.5V32.4999C3.75 36.2691 6.76534 39.375 10.5469 39.375ZM10.5469 9.375C8.89187 9.375 7.5 10.7462 7.5 12.5V32.4999C7.5 34.2538 8.89187 35.625 10.5469 35.625H26.9531C28.6082 35.625 30 34.2538 30 32.4999V12.5C30 10.7462 28.6082 9.375 26.9531 9.375H10.5469ZM34.4531 35.625H33.0079C33.4828 34.6851 33.75 33.6219 33.75 32.4999V12.5C33.75 11.3781 33.4828 10.315 33.0079 9.375H34.4531C36.1082 9.375 37.5 10.7462 37.5 12.5V32.4999C37.5 34.2538 36.1082 35.625 34.4531 35.625Z" fill="#002551"/>
</svg>
