<svg width="39" height="35" viewBox="0 0 39 35" fill="none" xmlns="http://www.w3.org/2000/svg">
<path fill-rule="evenodd" clip-rule="evenodd" d="M7.54688 34.375H31.4531C35.2346 34.375 38.25 31.2691 38.25 27.4999V7.50001C38.25 3.73099 35.2346 0.625 31.4531 0.625H7.54688C3.76534 0.625 0.75 3.73099 0.75 7.50001V27.4999C0.75 31.2691 3.76534 34.375 7.54688 34.375ZM7.54688 4.375C5.89187 4.375 4.5 5.74617 4.5 7.50001V27.4999C4.5 29.2538 5.89187 30.625 7.54688 30.625H23.9531C25.6082 30.625 27 29.2538 27 27.4999V7.50001C27 5.74617 25.6082 4.375 23.9531 4.375H7.54688ZM31.4531 30.625H30.0079C30.4828 29.6851 30.75 28.6219 30.75 27.4999V7.50001C30.75 6.37812 30.4828 5.31497 30.0079 4.375H31.4531C33.1082 4.375 34.5 5.74617 34.5 7.50001V27.4999C34.5 29.2538 33.1082 30.625 31.4531 30.625Z" fill="#6B9DFF"/>
</svg>
