<svg width="156" height="121" viewBox="0 0 156 121" fill="none" xmlns="http://www.w3.org/2000/svg">
<path d="M155.998 18.9583C155.998 13.9516 154.228 9.41246 151.373 6.1272C151.363 6.11478 151.356 6.10237 151.346 6.09049C151.213 5.92204 151.068 5.77087 150.917 5.62726C148.112 2.64569 144.367 0.820312 140.259 0.820312H15.7381C11.6318 0.820312 7.88995 2.6438 5.08506 5.6224C4.93371 5.76709 4.7867 5.92015 4.65143 6.09049C4.64071 6.10344 4.63306 6.11775 4.62234 6.13071C1.76818 9.41543 0 13.9535 0 18.9583V102.042C0 107.071 1.78605 111.627 4.66419 114.916C4.80559 115.093 4.95464 115.26 5.11441 115.41C7.91675 118.37 11.6468 120.18 15.7386 120.18H140.26C144.352 120.18 148.084 118.369 150.886 115.408C151.046 115.259 151.194 115.093 151.334 114.916C154.212 111.627 156 107.071 156 102.041V18.9583H155.998ZM124.983 89.2531C122.957 87.7635 120.171 88.2929 118.762 90.4373C117.354 92.581 117.855 95.5266 119.882 97.0162L138.534 110.725H17.4636L36.1168 97.0157C38.1435 95.5261 38.6448 92.5804 37.2365 90.436C35.8282 88.2915 33.0427 87.7616 31.0157 89.2512L9.39449 105.143C9.10405 104.178 8.93866 103.135 8.93866 102.042V18.9583C8.93866 18.0494 9.04918 17.1737 9.2531 16.3501L50.2163 52.7284C49.6002 54.6612 49.2616 56.7401 49.2616 58.9072C49.2616 64.5178 51.508 69.5421 55.0538 72.9332L55.0556 72.935C55.0556 72.935 74.549 89.3624 74.6003 89.4061C75.5367 90.1855 76.7148 90.6535 77.9991 90.6535C79.2867 90.6535 80.4684 90.1833 81.4058 89.3997L100.944 72.9356C104.491 69.544 106.736 64.5178 106.736 58.9072C106.736 56.7398 106.398 54.661 105.782 52.729L146.745 16.3496C146.949 17.174 147.06 18.0497 147.06 18.9583V102.042C147.06 103.136 146.894 104.179 146.603 105.144L124.983 89.2531ZM100.831 44.7796C97.9343 42.0585 94.193 40.4153 90.1043 40.4153C85.3335 40.4153 81.0317 42.6483 77.9994 46.2267C74.9658 42.6483 70.6643 40.4153 65.8931 40.4153C61.805 40.4153 58.0629 42.0585 55.1674 44.7796L16.3136 10.2747H139.684L100.831 44.7796Z" fill="#0D0F12"/>
</svg>
